<mxfile host="Electron" modified="2023-04-24T10:40:10.074Z" agent="Mozilla/5.0 (Windows NT 10.0; Win64; x64) AppleWebKit/537.36 (KHTML, like Gecko) draw.io/21.2.1 Chrome/112.0.5615.87 Electron/24.1.2 Safari/537.36" etag="KrELiE0SzgofHre5yi9n" version="21.2.1" type="device" pages="3">
  <diagram id="EibzAUO5J-utLJwtFmag" name="LogDrive">
    <mxGraphModel dx="1407" dy="864" grid="1" gridSize="10" guides="1" tooltips="1" connect="1" arrows="1" fold="1" page="1" pageScale="1" pageWidth="1100" pageHeight="850" math="0" shadow="0">
      <root>
        <mxCell id="0" />
        <mxCell id="1" parent="0" />
        <mxCell id="EL9Kz_6lL9P6iTU_38SJ-4" style="edgeStyle=orthogonalEdgeStyle;shape=connector;rounded=1;orthogonalLoop=1;jettySize=auto;html=1;entryX=0;entryY=0.5;entryDx=0;entryDy=0;labelBackgroundColor=default;strokeColor=#004C99;strokeWidth=3;fontFamily=Helvetica;fontSize=11;fontColor=default;endArrow=classic;" edge="1" parent="1" source="EL9Kz_6lL9P6iTU_38SJ-1" target="EL9Kz_6lL9P6iTU_38SJ-2">
          <mxGeometry relative="1" as="geometry" />
        </mxCell>
        <mxCell id="EL9Kz_6lL9P6iTU_38SJ-5" style="edgeStyle=orthogonalEdgeStyle;shape=connector;rounded=1;orthogonalLoop=1;jettySize=auto;html=1;entryX=0;entryY=0.5;entryDx=0;entryDy=0;labelBackgroundColor=default;strokeColor=#004C99;strokeWidth=3;fontFamily=Helvetica;fontSize=11;fontColor=default;endArrow=classic;" edge="1" parent="1" source="EL9Kz_6lL9P6iTU_38SJ-1" target="EL9Kz_6lL9P6iTU_38SJ-3">
          <mxGeometry relative="1" as="geometry" />
        </mxCell>
        <mxCell id="EL9Kz_6lL9P6iTU_38SJ-1" value="LogDrive:\" style="rounded=1;whiteSpace=wrap;html=1;fillColor=#e1d5e7;strokeColor=#9673a6;fontSize=20;" vertex="1" parent="1">
          <mxGeometry x="320" y="260" width="140" height="50" as="geometry" />
        </mxCell>
        <mxCell id="EL9Kz_6lL9P6iTU_38SJ-2" value="Subs\" style="rounded=1;whiteSpace=wrap;html=1;fillColor=#f5f5f5;strokeColor=#666666;fontSize=20;fontColor=#333333;" vertex="1" parent="1">
          <mxGeometry x="420" y="340" width="120" height="50" as="geometry" />
        </mxCell>
        <mxCell id="EL9Kz_6lL9P6iTU_38SJ-13" style="edgeStyle=orthogonalEdgeStyle;shape=connector;rounded=1;orthogonalLoop=1;jettySize=auto;html=1;entryX=0;entryY=0.5;entryDx=0;entryDy=0;labelBackgroundColor=default;strokeColor=#004C99;strokeWidth=3;fontFamily=Helvetica;fontSize=11;fontColor=default;endArrow=classic;" edge="1" parent="1" source="EL9Kz_6lL9P6iTU_38SJ-3" target="EL9Kz_6lL9P6iTU_38SJ-8">
          <mxGeometry relative="1" as="geometry" />
        </mxCell>
        <mxCell id="EL9Kz_6lL9P6iTU_38SJ-14" style="edgeStyle=orthogonalEdgeStyle;shape=connector;rounded=1;orthogonalLoop=1;jettySize=auto;html=1;entryX=0;entryY=0.5;entryDx=0;entryDy=0;labelBackgroundColor=default;strokeColor=#004C99;strokeWidth=3;fontFamily=Helvetica;fontSize=11;fontColor=default;endArrow=classic;" edge="1" parent="1" source="EL9Kz_6lL9P6iTU_38SJ-3" target="EL9Kz_6lL9P6iTU_38SJ-9">
          <mxGeometry relative="1" as="geometry" />
        </mxCell>
        <mxCell id="EL9Kz_6lL9P6iTU_38SJ-15" style="edgeStyle=orthogonalEdgeStyle;shape=connector;rounded=1;orthogonalLoop=1;jettySize=auto;html=1;entryX=0;entryY=0.5;entryDx=0;entryDy=0;labelBackgroundColor=default;strokeColor=#004C99;strokeWidth=3;fontFamily=Helvetica;fontSize=11;fontColor=default;endArrow=classic;" edge="1" parent="1" source="EL9Kz_6lL9P6iTU_38SJ-3" target="EL9Kz_6lL9P6iTU_38SJ-10">
          <mxGeometry relative="1" as="geometry" />
        </mxCell>
        <mxCell id="EL9Kz_6lL9P6iTU_38SJ-16" style="edgeStyle=orthogonalEdgeStyle;shape=connector;rounded=1;orthogonalLoop=1;jettySize=auto;html=1;entryX=0;entryY=0.5;entryDx=0;entryDy=0;labelBackgroundColor=default;strokeColor=#004C99;strokeWidth=3;fontFamily=Helvetica;fontSize=11;fontColor=default;endArrow=classic;" edge="1" parent="1" source="EL9Kz_6lL9P6iTU_38SJ-3" target="EL9Kz_6lL9P6iTU_38SJ-11">
          <mxGeometry relative="1" as="geometry" />
        </mxCell>
        <mxCell id="EL9Kz_6lL9P6iTU_38SJ-3" value="Logs\" style="rounded=1;whiteSpace=wrap;html=1;fillColor=#f5f5f5;strokeColor=#666666;fontSize=20;fontColor=#333333;" vertex="1" parent="1">
          <mxGeometry x="420" y="410" width="120" height="50" as="geometry" />
        </mxCell>
        <mxCell id="EL9Kz_6lL9P6iTU_38SJ-8" value="ALL" style="rounded=1;whiteSpace=wrap;html=1;fillColor=#f5f5f5;strokeColor=#666666;fontSize=20;fontColor=#333333;" vertex="1" parent="1">
          <mxGeometry x="510" y="490" width="110" height="50" as="geometry" />
        </mxCell>
        <mxCell id="EL9Kz_6lL9P6iTU_38SJ-9" value="VERB" style="rounded=1;whiteSpace=wrap;html=1;fillColor=#dae8fc;strokeColor=#6c8ebf;fontSize=20;" vertex="1" parent="1">
          <mxGeometry x="510" y="560" width="110" height="50" as="geometry" />
        </mxCell>
        <mxCell id="EL9Kz_6lL9P6iTU_38SJ-10" value="WARN" style="rounded=1;whiteSpace=wrap;html=1;fillColor=#fff2cc;strokeColor=#d6b656;fontSize=20;" vertex="1" parent="1">
          <mxGeometry x="510" y="630" width="110" height="50" as="geometry" />
        </mxCell>
        <mxCell id="EL9Kz_6lL9P6iTU_38SJ-11" value="INFO" style="rounded=1;whiteSpace=wrap;html=1;fillColor=#d5e8d4;strokeColor=#82b366;fontSize=20;" vertex="1" parent="1">
          <mxGeometry x="510" y="700" width="110" height="50" as="geometry" />
        </mxCell>
        <mxCell id="jCXhpSgrZILN6piNONhm-1" value="&lt;span style=&quot;&quot;&gt;Event subscriptions that send the logs to sinks&lt;/span&gt;" style="text;html=1;strokeColor=none;fillColor=none;align=left;verticalAlign=middle;whiteSpace=wrap;rounded=0;fontSize=16;fontStyle=0" vertex="1" parent="1">
          <mxGeometry x="550" y="335.25" width="180" height="59.5" as="geometry" />
        </mxCell>
        <mxCell id="jCXhpSgrZILN6piNONhm-2" value="&lt;span style=&quot;&quot;&gt;The actual logs that have been generated till now&lt;/span&gt;" style="text;html=1;strokeColor=none;fillColor=none;align=left;verticalAlign=middle;whiteSpace=wrap;rounded=0;fontSize=16;fontStyle=0" vertex="1" parent="1">
          <mxGeometry x="550" y="405.25" width="190" height="59.5" as="geometry" />
        </mxCell>
        <mxCell id="jCXhpSgrZILN6piNONhm-3" value="&lt;span style=&quot;&quot;&gt;All the logs aggregated into a single view&lt;/span&gt;" style="text;html=1;strokeColor=none;fillColor=none;align=left;verticalAlign=middle;whiteSpace=wrap;rounded=0;fontSize=16;fontStyle=2" vertex="1" parent="1">
          <mxGeometry x="640" y="485.25" width="190" height="59.5" as="geometry" />
        </mxCell>
        <mxCell id="jCXhpSgrZILN6piNONhm-4" value="&lt;span style=&quot;&quot;&gt;Only Verbose logs&lt;/span&gt;" style="text;html=1;strokeColor=none;fillColor=none;align=left;verticalAlign=middle;whiteSpace=wrap;rounded=0;fontSize=16;fontStyle=2" vertex="1" parent="1">
          <mxGeometry x="640" y="555.25" width="190" height="59.5" as="geometry" />
        </mxCell>
        <mxCell id="jCXhpSgrZILN6piNONhm-5" value="&lt;span style=&quot;&quot;&gt;Only Warning logs&lt;/span&gt;" style="text;html=1;strokeColor=none;fillColor=none;align=left;verticalAlign=middle;whiteSpace=wrap;rounded=0;fontSize=16;fontStyle=2" vertex="1" parent="1">
          <mxGeometry x="640" y="625.25" width="190" height="59.5" as="geometry" />
        </mxCell>
        <mxCell id="jCXhpSgrZILN6piNONhm-6" value="&lt;span style=&quot;&quot;&gt;Only Information logs&lt;/span&gt;" style="text;html=1;strokeColor=none;fillColor=none;align=left;verticalAlign=middle;whiteSpace=wrap;rounded=0;fontSize=16;fontStyle=2" vertex="1" parent="1">
          <mxGeometry x="640" y="695.25" width="190" height="59.5" as="geometry" />
        </mxCell>
      </root>
    </mxGraphModel>
  </diagram>
  <diagram name="Module-Loading" id="tSmDjB7LKcYXzFFN0ZDk">
    <mxGraphModel dx="1173" dy="720" grid="1" gridSize="10" guides="1" tooltips="1" connect="1" arrows="1" fold="1" page="1" pageScale="1" pageWidth="1100" pageHeight="850" math="0" shadow="0">
      <root>
        <mxCell id="0" />
        <mxCell id="1" parent="0" />
        <mxCell id="OpmZFI284N9rGBgXYf2b-15" style="edgeStyle=orthogonalEdgeStyle;rounded=1;orthogonalLoop=1;jettySize=auto;html=1;entryX=0;entryY=0.5;entryDx=0;entryDy=0;strokeWidth=3;strokeColor=#004C99;" edge="1" parent="1" source="OpmZFI284N9rGBgXYf2b-1" target="OpmZFI284N9rGBgXYf2b-8">
          <mxGeometry relative="1" as="geometry" />
        </mxCell>
        <mxCell id="OpmZFI284N9rGBgXYf2b-17" style="edgeStyle=orthogonalEdgeStyle;rounded=1;orthogonalLoop=1;jettySize=auto;html=1;entryX=0;entryY=0.5;entryDx=0;entryDy=0;strokeColor=#004C99;strokeWidth=3;" edge="1" parent="1" source="OpmZFI284N9rGBgXYf2b-1" target="OpmZFI284N9rGBgXYf2b-9">
          <mxGeometry relative="1" as="geometry" />
        </mxCell>
        <mxCell id="OpmZFI284N9rGBgXYf2b-22" style="edgeStyle=orthogonalEdgeStyle;shape=connector;rounded=1;orthogonalLoop=1;jettySize=auto;html=1;labelBackgroundColor=default;strokeColor=#004C99;strokeWidth=3;fontFamily=Helvetica;fontSize=11;fontColor=default;endArrow=classic;" edge="1" parent="1" source="OpmZFI284N9rGBgXYf2b-1" target="OpmZFI284N9rGBgXYf2b-21">
          <mxGeometry relative="1" as="geometry" />
        </mxCell>
        <mxCell id="OpmZFI284N9rGBgXYf2b-31" style="edgeStyle=orthogonalEdgeStyle;shape=connector;rounded=1;orthogonalLoop=1;jettySize=auto;html=1;entryX=0;entryY=0.5;entryDx=0;entryDy=0;labelBackgroundColor=default;strokeColor=#004C99;strokeWidth=3;fontFamily=Helvetica;fontSize=11;fontColor=default;endArrow=classic;" edge="1" parent="1" source="OpmZFI284N9rGBgXYf2b-1" target="OpmZFI284N9rGBgXYf2b-30">
          <mxGeometry relative="1" as="geometry" />
        </mxCell>
        <mxCell id="OpmZFI284N9rGBgXYf2b-1" value="LogProvider&lt;br&gt;&lt;b&gt;PSD1&lt;/b&gt;" style="rounded=1;whiteSpace=wrap;html=1;fillColor=#dae8fc;strokeColor=#6c8ebf;fontSize=20;" vertex="1" parent="1">
          <mxGeometry x="250" y="310" width="160" height="80" as="geometry" />
        </mxCell>
        <mxCell id="OpmZFI284N9rGBgXYf2b-6" style="edgeStyle=orthogonalEdgeStyle;rounded=1;orthogonalLoop=1;jettySize=auto;html=1;strokeColor=#004C99;strokeWidth=3;" edge="1" parent="1" source="OpmZFI284N9rGBgXYf2b-5" target="OpmZFI284N9rGBgXYf2b-1">
          <mxGeometry relative="1" as="geometry" />
        </mxCell>
        <mxCell id="OpmZFI284N9rGBgXYf2b-5" value="Import-Module&lt;br&gt;&lt;b&gt;LogProvider&lt;/b&gt;" style="rounded=1;whiteSpace=wrap;html=1;fillColor=#f5f5f5;strokeColor=#666666;fontSize=20;fontColor=#333333;" vertex="1" parent="1">
          <mxGeometry x="20" y="310" width="160" height="80" as="geometry" />
        </mxCell>
        <mxCell id="OpmZFI284N9rGBgXYf2b-7" value="LogProvider&lt;br style=&quot;font-size: 18px;&quot;&gt;formats.ps1xml" style="rounded=1;whiteSpace=wrap;html=1;fillColor=#d5e8d4;strokeColor=#82b366;fontSize=18;" vertex="1" parent="1">
          <mxGeometry x="360" y="436.25" width="160" height="57.5" as="geometry" />
        </mxCell>
        <mxCell id="OpmZFI284N9rGBgXYf2b-8" value="LogClass&lt;br style=&quot;font-size: 18px;&quot;&gt;formats.ps1xml" style="rounded=1;whiteSpace=wrap;html=1;fillColor=#d5e8d4;strokeColor=#82b366;fontSize=18;" vertex="1" parent="1">
          <mxGeometry x="360" y="525" width="160" height="55" as="geometry" />
        </mxCell>
        <mxCell id="OpmZFI284N9rGBgXYf2b-9" value="LogClass&lt;br style=&quot;font-size: 18px;&quot;&gt;PS1" style="rounded=1;whiteSpace=wrap;html=1;fillColor=#d5e8d4;strokeColor=#82b366;fontSize=18;" vertex="1" parent="1">
          <mxGeometry x="360" y="610" width="160" height="55" as="geometry" />
        </mxCell>
        <mxCell id="OpmZFI284N9rGBgXYf2b-10" value="Formatting config for Log Drive classes" style="text;html=1;strokeColor=none;fillColor=none;align=right;verticalAlign=middle;whiteSpace=wrap;rounded=0;fontSize=16;fontStyle=2" vertex="1" parent="1">
          <mxGeometry x="160" y="435.25" width="150" height="59.5" as="geometry" />
        </mxCell>
        <mxCell id="OpmZFI284N9rGBgXYf2b-11" value="Formatting config for Log Payload class" style="text;html=1;strokeColor=none;fillColor=none;align=right;verticalAlign=middle;whiteSpace=wrap;rounded=0;fontSize=16;fontStyle=2" vertex="1" parent="1">
          <mxGeometry x="160" y="522.75" width="150" height="59.5" as="geometry" />
        </mxCell>
        <mxCell id="OpmZFI284N9rGBgXYf2b-12" value="Class for&lt;br&gt;Log Payload" style="text;html=1;strokeColor=none;fillColor=none;align=right;verticalAlign=middle;whiteSpace=wrap;rounded=0;fontSize=16;fontStyle=2" vertex="1" parent="1">
          <mxGeometry x="160" y="607.75" width="150" height="59.5" as="geometry" />
        </mxCell>
        <mxCell id="OpmZFI284N9rGBgXYf2b-14" style="edgeStyle=orthogonalEdgeStyle;rounded=1;orthogonalLoop=1;jettySize=auto;html=1;strokeColor=#004C99;strokeWidth=3;entryX=0;entryY=0.5;entryDx=0;entryDy=0;exitX=0.5;exitY=1;exitDx=0;exitDy=0;" edge="1" parent="1" source="OpmZFI284N9rGBgXYf2b-1" target="OpmZFI284N9rGBgXYf2b-7">
          <mxGeometry relative="1" as="geometry">
            <mxPoint x="180" y="350" as="sourcePoint" />
            <mxPoint x="250" y="350" as="targetPoint" />
            <Array as="points">
              <mxPoint x="330" y="465" />
            </Array>
          </mxGeometry>
        </mxCell>
        <mxCell id="OpmZFI284N9rGBgXYf2b-35" style="edgeStyle=orthogonalEdgeStyle;shape=connector;rounded=1;orthogonalLoop=1;jettySize=auto;html=1;entryX=0;entryY=0.5;entryDx=0;entryDy=0;labelBackgroundColor=default;strokeColor=#004C99;strokeWidth=3;fontFamily=Helvetica;fontSize=11;fontColor=default;endArrow=classic;" edge="1" parent="1" source="OpmZFI284N9rGBgXYf2b-21" target="OpmZFI284N9rGBgXYf2b-34">
          <mxGeometry relative="1" as="geometry" />
        </mxCell>
        <mxCell id="OpmZFI284N9rGBgXYf2b-21" value="LogProvider&lt;br&gt;&lt;b&gt;PSM1&lt;/b&gt;" style="rounded=1;whiteSpace=wrap;html=1;fillColor=#f8cecc;strokeColor=#b85450;fontSize=20;" vertex="1" parent="1">
          <mxGeometry x="570" y="310" width="160" height="80" as="geometry" />
        </mxCell>
        <mxCell id="OpmZFI284N9rGBgXYf2b-23" value="1" style="ellipse;whiteSpace=wrap;html=1;aspect=fixed;fontFamily=Helvetica;fontSize=18;fillColor=#60a917;strokeColor=#2D7600;fontColor=#ffffff;" vertex="1" parent="1">
          <mxGeometry x="10" y="300" width="30" height="30" as="geometry" />
        </mxCell>
        <mxCell id="OpmZFI284N9rGBgXYf2b-24" value="2" style="ellipse;whiteSpace=wrap;html=1;aspect=fixed;fontFamily=Helvetica;fontSize=18;fillColor=#60a917;strokeColor=#2D7600;fontColor=#ffffff;" vertex="1" parent="1">
          <mxGeometry x="240" y="300" width="30" height="30" as="geometry" />
        </mxCell>
        <mxCell id="OpmZFI284N9rGBgXYf2b-25" value="2a" style="ellipse;whiteSpace=wrap;html=1;aspect=fixed;fontFamily=Helvetica;fontSize=18;fillColor=#60a917;strokeColor=#2D7600;fontColor=#ffffff;" vertex="1" parent="1">
          <mxGeometry x="350" y="424.5" width="30" height="30" as="geometry" />
        </mxCell>
        <mxCell id="OpmZFI284N9rGBgXYf2b-26" value="2b" style="ellipse;whiteSpace=wrap;html=1;aspect=fixed;fontFamily=Helvetica;fontSize=18;fillColor=#60a917;strokeColor=#2D7600;fontColor=#ffffff;" vertex="1" parent="1">
          <mxGeometry x="350" y="513" width="30" height="30" as="geometry" />
        </mxCell>
        <mxCell id="OpmZFI284N9rGBgXYf2b-27" value="2c" style="ellipse;whiteSpace=wrap;html=1;aspect=fixed;fontFamily=Helvetica;fontSize=18;fillColor=#60a917;strokeColor=#2D7600;fontColor=#ffffff;" vertex="1" parent="1">
          <mxGeometry x="350" y="600" width="30" height="30" as="geometry" />
        </mxCell>
        <mxCell id="OpmZFI284N9rGBgXYf2b-28" value="3" style="ellipse;whiteSpace=wrap;html=1;aspect=fixed;fontFamily=Helvetica;fontSize=18;fillColor=#60a917;strokeColor=#2D7600;fontColor=#ffffff;" vertex="1" parent="1">
          <mxGeometry x="560" y="300" width="30" height="30" as="geometry" />
        </mxCell>
        <mxCell id="OpmZFI284N9rGBgXYf2b-29" value="Classes for the custom PS Drive" style="text;html=1;strokeColor=none;fillColor=none;align=center;verticalAlign=middle;whiteSpace=wrap;rounded=0;fontSize=16;" vertex="1" parent="1">
          <mxGeometry x="570" y="395" width="150" height="59.5" as="geometry" />
        </mxCell>
        <mxCell id="OpmZFI284N9rGBgXYf2b-30" value="SHiPS Module" style="rounded=1;whiteSpace=wrap;html=1;fillColor=#d5e8d4;strokeColor=#82b366;fontSize=18;" vertex="1" parent="1">
          <mxGeometry x="360" y="690" width="160" height="60" as="geometry" />
        </mxCell>
        <mxCell id="OpmZFI284N9rGBgXYf2b-32" value="Module for&lt;br&gt;creating PS Drives" style="text;html=1;strokeColor=none;fillColor=none;align=right;verticalAlign=middle;whiteSpace=wrap;rounded=0;fontSize=16;fontStyle=2" vertex="1" parent="1">
          <mxGeometry x="160" y="690.25" width="150" height="59.5" as="geometry" />
        </mxCell>
        <mxCell id="OpmZFI284N9rGBgXYf2b-33" value="2d" style="ellipse;whiteSpace=wrap;html=1;aspect=fixed;fontFamily=Helvetica;fontSize=18;fillColor=#60a917;strokeColor=#2D7600;fontColor=#ffffff;" vertex="1" parent="1">
          <mxGeometry x="350" y="680" width="30" height="30" as="geometry" />
        </mxCell>
        <mxCell id="OpmZFI284N9rGBgXYf2b-34" value="New-PSDrive&lt;br&gt;&lt;b&gt;LogDrive&lt;/b&gt;" style="rounded=1;whiteSpace=wrap;html=1;fillColor=#e1d5e7;strokeColor=#9673a6;fontSize=20;" vertex="1" parent="1">
          <mxGeometry x="810" y="310" width="160" height="80" as="geometry" />
        </mxCell>
        <mxCell id="OpmZFI284N9rGBgXYf2b-36" value="Custom PS Drive" style="text;html=1;strokeColor=none;fillColor=none;align=center;verticalAlign=middle;whiteSpace=wrap;rounded=0;fontSize=16;" vertex="1" parent="1">
          <mxGeometry x="815" y="390" width="150" height="59.5" as="geometry" />
        </mxCell>
        <mxCell id="OpmZFI284N9rGBgXYf2b-37" value="4" style="ellipse;whiteSpace=wrap;html=1;aspect=fixed;fontFamily=Helvetica;fontSize=18;fillColor=#60a917;strokeColor=#2D7600;fontColor=#ffffff;" vertex="1" parent="1">
          <mxGeometry x="800" y="300" width="30" height="30" as="geometry" />
        </mxCell>
        <mxCell id="OpmZFI284N9rGBgXYf2b-38" value="" style="shape=curlyBracket;whiteSpace=wrap;html=1;rounded=1;flipH=1;labelPosition=right;verticalLabelPosition=middle;align=left;verticalAlign=middle;fontFamily=Helvetica;fontSize=11;fontColor=default;strokeWidth=3;strokeColor=#004C99;" vertex="1" parent="1">
          <mxGeometry x="530" y="424.5" width="40" height="335.5" as="geometry" />
        </mxCell>
        <mxCell id="OpmZFI284N9rGBgXYf2b-39" value="These are all loaded &lt;b&gt;&lt;u&gt;before&lt;/u&gt;&lt;/b&gt; loading the actual module" style="text;html=1;strokeColor=none;fillColor=none;align=center;verticalAlign=middle;whiteSpace=wrap;rounded=0;fontSize=16;" vertex="1" parent="1">
          <mxGeometry x="570" y="560" width="150" height="59.5" as="geometry" />
        </mxCell>
        <mxCell id="OpmZFI284N9rGBgXYf2b-40" value="Process workflow when loading the LogProvider module" style="rounded=1;whiteSpace=wrap;html=1;fontSize=20;fontStyle=0" vertex="1" parent="1">
          <mxGeometry x="260" y="190" width="540" height="60" as="geometry" />
        </mxCell>
      </root>
    </mxGraphModel>
  </diagram>
  <diagram id="BD0m-8x1_F8CqJIvDN0d" name="Pester-Loading">
    <mxGraphModel dx="1173" dy="720" grid="1" gridSize="10" guides="1" tooltips="1" connect="1" arrows="1" fold="1" page="1" pageScale="1" pageWidth="1100" pageHeight="850" math="0" shadow="0">
      <root>
        <mxCell id="0" />
        <mxCell id="1" parent="0" />
        <mxCell id="1h9UkXxclEXjTvbOgJff-1" style="edgeStyle=orthogonalEdgeStyle;rounded=1;orthogonalLoop=1;jettySize=auto;html=1;entryX=0;entryY=0.5;entryDx=0;entryDy=0;strokeWidth=3;strokeColor=#004C99;" edge="1" parent="1" source="1h9UkXxclEXjTvbOgJff-5" target="1h9UkXxclEXjTvbOgJff-9">
          <mxGeometry relative="1" as="geometry" />
        </mxCell>
        <mxCell id="1h9UkXxclEXjTvbOgJff-3" style="edgeStyle=orthogonalEdgeStyle;shape=connector;rounded=1;orthogonalLoop=1;jettySize=auto;html=1;labelBackgroundColor=default;strokeColor=#004C99;strokeWidth=3;fontFamily=Helvetica;fontSize=11;fontColor=default;endArrow=classic;" edge="1" parent="1" source="1h9UkXxclEXjTvbOgJff-5" target="1h9UkXxclEXjTvbOgJff-16">
          <mxGeometry relative="1" as="geometry" />
        </mxCell>
        <mxCell id="1h9UkXxclEXjTvbOgJff-5" value="LogProvider&lt;br&gt;&lt;b&gt;.tests.ps1&lt;/b&gt;" style="rounded=1;whiteSpace=wrap;html=1;fillColor=#dae8fc;strokeColor=#6c8ebf;fontSize=20;" vertex="1" parent="1">
          <mxGeometry x="400" y="320" width="160" height="80" as="geometry" />
        </mxCell>
        <mxCell id="1h9UkXxclEXjTvbOgJff-6" style="edgeStyle=orthogonalEdgeStyle;rounded=1;orthogonalLoop=1;jettySize=auto;html=1;strokeColor=#004C99;strokeWidth=3;" edge="1" parent="1" source="1h9UkXxclEXjTvbOgJff-7" target="1h9UkXxclEXjTvbOgJff-5">
          <mxGeometry relative="1" as="geometry" />
        </mxCell>
        <mxCell id="1h9UkXxclEXjTvbOgJff-7" value="Invoke-Pester&lt;br&gt;&lt;b&gt;LogProvider&lt;/b&gt;" style="rounded=1;whiteSpace=wrap;html=1;fillColor=#f5f5f5;strokeColor=#666666;fontSize=20;fontColor=#333333;" vertex="1" parent="1">
          <mxGeometry x="170" y="320" width="160" height="80" as="geometry" />
        </mxCell>
        <mxCell id="1h9UkXxclEXjTvbOgJff-8" value="NewAssertions&lt;br&gt;PSM1" style="rounded=1;whiteSpace=wrap;html=1;fillColor=#d5e8d4;strokeColor=#82b366;fontSize=18;" vertex="1" parent="1">
          <mxGeometry x="510" y="446.25" width="160" height="57.5" as="geometry" />
        </mxCell>
        <mxCell id="1h9UkXxclEXjTvbOgJff-9" value="LogProvider&lt;br&gt;Module" style="rounded=1;whiteSpace=wrap;html=1;fillColor=#d5e8d4;strokeColor=#82b366;fontSize=18;" vertex="1" parent="1">
          <mxGeometry x="510" y="535" width="160" height="55" as="geometry" />
        </mxCell>
        <mxCell id="1h9UkXxclEXjTvbOgJff-11" value="Module for custom Should operator" style="text;html=1;strokeColor=none;fillColor=none;align=right;verticalAlign=middle;whiteSpace=wrap;rounded=0;fontSize=16;fontStyle=2" vertex="1" parent="1">
          <mxGeometry x="310" y="445.25" width="150" height="59.5" as="geometry" />
        </mxCell>
        <mxCell id="1h9UkXxclEXjTvbOgJff-12" value="The module that&lt;br&gt;will be tested" style="text;html=1;strokeColor=none;fillColor=none;align=right;verticalAlign=middle;whiteSpace=wrap;rounded=0;fontSize=16;fontStyle=2" vertex="1" parent="1">
          <mxGeometry x="310" y="532.75" width="150" height="59.5" as="geometry" />
        </mxCell>
        <mxCell id="1h9UkXxclEXjTvbOgJff-14" style="edgeStyle=orthogonalEdgeStyle;rounded=1;orthogonalLoop=1;jettySize=auto;html=1;strokeColor=#004C99;strokeWidth=3;entryX=0;entryY=0.5;entryDx=0;entryDy=0;exitX=0.5;exitY=1;exitDx=0;exitDy=0;" edge="1" parent="1" source="1h9UkXxclEXjTvbOgJff-5" target="1h9UkXxclEXjTvbOgJff-8">
          <mxGeometry relative="1" as="geometry">
            <mxPoint x="330" y="360" as="sourcePoint" />
            <mxPoint x="400" y="360" as="targetPoint" />
            <Array as="points">
              <mxPoint x="480" y="475" />
            </Array>
          </mxGeometry>
        </mxCell>
        <mxCell id="1h9UkXxclEXjTvbOgJff-16" value="Describe/Context&lt;br&gt;tests" style="rounded=1;whiteSpace=wrap;html=1;fillColor=#f8cecc;strokeColor=#b85450;fontSize=20;" vertex="1" parent="1">
          <mxGeometry x="720" y="320" width="180" height="80" as="geometry" />
        </mxCell>
        <mxCell id="1h9UkXxclEXjTvbOgJff-17" value="1" style="ellipse;whiteSpace=wrap;html=1;aspect=fixed;fontFamily=Helvetica;fontSize=18;fillColor=#60a917;strokeColor=#2D7600;fontColor=#ffffff;" vertex="1" parent="1">
          <mxGeometry x="160" y="310" width="30" height="30" as="geometry" />
        </mxCell>
        <mxCell id="1h9UkXxclEXjTvbOgJff-18" value="2" style="ellipse;whiteSpace=wrap;html=1;aspect=fixed;fontFamily=Helvetica;fontSize=18;fillColor=#60a917;strokeColor=#2D7600;fontColor=#ffffff;" vertex="1" parent="1">
          <mxGeometry x="390" y="310" width="30" height="30" as="geometry" />
        </mxCell>
        <mxCell id="1h9UkXxclEXjTvbOgJff-19" value="2a" style="ellipse;whiteSpace=wrap;html=1;aspect=fixed;fontFamily=Helvetica;fontSize=18;fillColor=#60a917;strokeColor=#2D7600;fontColor=#ffffff;" vertex="1" parent="1">
          <mxGeometry x="500" y="434.5" width="30" height="30" as="geometry" />
        </mxCell>
        <mxCell id="1h9UkXxclEXjTvbOgJff-20" value="2b" style="ellipse;whiteSpace=wrap;html=1;aspect=fixed;fontFamily=Helvetica;fontSize=18;fillColor=#60a917;strokeColor=#2D7600;fontColor=#ffffff;" vertex="1" parent="1">
          <mxGeometry x="500" y="523" width="30" height="30" as="geometry" />
        </mxCell>
        <mxCell id="1h9UkXxclEXjTvbOgJff-22" value="3" style="ellipse;whiteSpace=wrap;html=1;aspect=fixed;fontFamily=Helvetica;fontSize=18;fillColor=#60a917;strokeColor=#2D7600;fontColor=#ffffff;" vertex="1" parent="1">
          <mxGeometry x="710" y="310" width="30" height="30" as="geometry" />
        </mxCell>
        <mxCell id="1h9UkXxclEXjTvbOgJff-23" value="The actual Pester tests" style="text;html=1;strokeColor=none;fillColor=none;align=center;verticalAlign=middle;whiteSpace=wrap;rounded=0;fontSize=16;" vertex="1" parent="1">
          <mxGeometry x="735" y="405" width="150" height="59.5" as="geometry" />
        </mxCell>
        <mxCell id="1h9UkXxclEXjTvbOgJff-30" value="" style="shape=curlyBracket;whiteSpace=wrap;html=1;rounded=1;flipH=1;labelPosition=right;verticalLabelPosition=middle;align=left;verticalAlign=middle;fontFamily=Helvetica;fontSize=11;fontColor=default;strokeWidth=3;strokeColor=#004C99;" vertex="1" parent="1">
          <mxGeometry x="680" y="434.5" width="40" height="165.5" as="geometry" />
        </mxCell>
        <mxCell id="1h9UkXxclEXjTvbOgJff-31" value="These are all loaded &lt;b&gt;&lt;u&gt;before&lt;/u&gt;&lt;/b&gt;&amp;nbsp;running any of the tests" style="text;html=1;strokeColor=none;fillColor=none;align=center;verticalAlign=middle;whiteSpace=wrap;rounded=0;fontSize=16;" vertex="1" parent="1">
          <mxGeometry x="720" y="493.5" width="150" height="59.5" as="geometry" />
        </mxCell>
        <mxCell id="1h9UkXxclEXjTvbOgJff-32" value="Process workflow when running the Pester tests" style="rounded=1;whiteSpace=wrap;html=1;fontSize=20;fontStyle=0" vertex="1" parent="1">
          <mxGeometry x="245" y="200" width="540" height="60" as="geometry" />
        </mxCell>
      </root>
    </mxGraphModel>
  </diagram>
</mxfile>
